<svg width="100" height="100" viewBox="0 0 100 100" fill="none" xmlns="http://www.w3.org/2000/svg">
  <circle cx="50" cy="50" r="40" fill="#0052FF"/>
  <path d="M50 28C37.85 28 28 37.85 28 50C28 62.15 37.85 72 50 72C62.15 72 72 62.15 72 50C72 37.85 62.15 28 50 28ZM50 65.5C41.44 65.5 34.5 58.56 34.5 50C34.5 41.44 41.44 34.5 50 34.5C58.56 34.5 65.5 41.44 65.5 50C65.5 58.56 58.56 65.5 50 65.5Z" fill="white"/>
  <path d="M54.5 50C54.5 52.485 52.485 54.5 50 54.5C47.515 54.5 45.5 52.485 45.5 50C45.5 47.515 47.515 45.5 50 45.5C52.485 45.5 54.5 47.515 54.5 50Z" fill="white"/>
</svg>
