<svg width="100" height="100" viewBox="0 0 100 100" fill="none" xmlns="http://www.w3.org/2000/svg">
  <path d="M20.0001 62.5001C20.3335 62.1667 20.8335 62.0001 21.3335 62.0001H88.3335C89.5001 62.0001 90.0001 63.3334 89.1668 64.1667L80.0001 73.3334C79.6668 73.6667 79.1668 73.8334 78.6668 73.8334H11.6668C10.5001 73.8334 10.0001 72.5001 10.8335 71.6667L20.0001 62.5001Z" fill="#9945FF"/>
  <path d="M20.0001 26.6667C20.3335 26.3334 20.8335 26.1667 21.3335 26.1667H88.3335C89.5001 26.1667 90.0001 27.5 89.1668 28.3334L80.0001 37.5C79.6668 37.8334 79.1668 38 78.6668 38H11.6668C10.5001 38 10.0001 36.6667 10.8335 35.8334L20.0001 26.6667Z" fill="#00FFA3"/>
  <path d="M80.0001 44.5001C79.6668 44.1667 79.1668 44.0001 78.6668 44.0001H11.6668C10.5001 44.0001 10.0001 45.3334 10.8335 46.1667L20.0001 55.3334C20.3335 55.6667 20.8335 55.8334 21.3335 55.8334H88.3335C89.5001 55.8334 90.0001 54.5001 89.1668 53.6667L80.0001 44.5001Z" fill="#00C2FF"/>
</svg>
